<svg xmlns="http://www.w3.org/2000/svg" version="1.1" xmlns:xlink="http://www.w3.org/1999/xlink" xmlns:svgjs="http://svgjs.com/svgjs" height="100.81999206542969" width="291.9407424926758"><defs id="SvgjsDefs8686"></defs><g id="SvgjsG8687" rel="mainfill" name="main_text" xmlns:name="main_text" transform="translate(81.94074535369873,-141.47000122070312)" fill="#cf246c"><path d="M27.36 226.25C32.75 238.11 44.48 242.29 56.61 242.29C74.27 242.29 93.54 231.64 93.54 211.83C93.54 192.69 80.47 184.60 58.90 180.69C39.49 177.05 36.26 173.68 36.26 167.35C36.26 161.96 40.17 157.78 46.64 157.78C57.55 157.78 65.10 165.60 65.51 180.56L88.29 180.56L88.29 141.87L69.15 141.87L70.22 157.11C66.32 147.54 56.48 141.47 43.54 141.47C23.99 141.47 9.70 153.06 9.70 170.58C9.70 192.42 26.28 199.02 47.72 203.07C58.77 205.09 67.26 206.30 67.26 214.93C67.26 222.21 61.06 226.39 53.38 226.39C44.08 226.39 33.43 220.05 32.89 203.74L9.30 203.74L9.30 241.62L28.71 241.62L27.36 226.25ZM159.45 163.98L172.93 163.98L165.79 184.74C161.34 197.54 158.38 207.65 156.89 217.22C155.68 208.46 152.45 197.27 148.27 186.49L139.64 163.98L154.87 163.98L154.87 144.17L99.20 144.17L99.20 163.98L110.93 163.98L143.68 240L167.27 240L198.54 163.98L210.00 163.98L210.00 144.17L159.45 144.17L159.45 163.98Z" fill="#cf246c" style="fill: rgb(207, 36, 108);"></path></g><g id="SvgjsG8688" rel="mainfill" name="symbol" xmlns:name="symbol_mainfill" transform="translate(-16.86299991607666,-4.582660675048832) scale(1.1)" fill="#A90641"><title>collections_07</title><circle cx="27.68" cy="19.59" r="1.36"></circle><circle cx="32.71" cy="19.59" r="1.36"></circle><circle cx="22.65" cy="19.59" r="1.36"></circle><path d="M84.38,68.15L67.44,51.08l5.41-5.41a1,1,0,0,0,0-1.41L60.64,32.06a1,1,0,0,0-1.41,1.42L70.73,45,66,49.66,57.34,40.9a1,1,0,0,0-1.71.63L52.88,78.92a1,1,0,0,0,1.43,1L63,75.72l3.85,10.58a1,1,0,1,0,1.88-.68L64.54,74a1,1,0,0,0-1.37-.56L55,77.35l2.46-33.48L81.62,68.21l-10.81,2a1,1,0,0,0-.75,1.35l3.59,9.08a1,1,0,1,0,1.86-.74l-3.14-8,11.48-2.1A1,1,0,0,0,84.38,68.15Z" fill="#A90641" style="fill: rgb(169, 6, 65);"></path><path d="M38.25,32.06a1,1,0,0,0-1.41,0L24.49,44.4a1,1,0,0,0,0,1.41L36.69,58a1,1,0,0,0,1.41-1.41L26.61,45.11,38.25,33.47A1,1,0,0,0,38.25,32.06Z" fill="#A90641" style="fill: rgb(169, 6, 65);"></path><path d="M53.66,32.31L41.27,56.86a1,1,0,1,0,1.79.9l12.4-24.55A1,1,0,0,0,53.66,32.31Z" fill="#A90641" style="fill: rgb(169, 6, 65);"></path><path d="M49.74,66.39H17.33V25.65H80V58.84a1,1,0,0,0,2,0V14a1,1,0,0,0-1-1H16.33a1,1,0,0,0-1,1V67.39a1,1,0,0,0,1,1H49.74A1,1,0,0,0,49.74,66.39ZM17.33,15H80v8.62H17.33V15Z" fill="#A90641" style="fill: rgb(169, 6, 65);"></path></g></svg>