<svg xmlns="http://www.w3.org/2000/svg" viewBox="0 0 294 101"><title>logo2</title><path d="M198.41,36.16c3.13,15.86,18.35,21.25,37.42,24.7,11,1.93,19.54,3.09,19.54,11.35,0,7-6.2,11-13.88,11-9.3,0-20-6.07-20.49-21.69H197.41V97.77h19.41l-1.35-14.72c5.39,11.36,17.12,15.37,29.25,15.37,17.66,0,36.93-10.2,36.93-29.18,0-18.33-13.07-26.07-34.64-29.82-19.41-3.48-22.64-6.71-22.64-12.77,0-5.16,3.91-9.17,10.38-9.17,10.91,0,18.46,7.49,18.87,21.82H276.4v-37H257.26l1.07,14.59c-3.9-9.16-13.74-15-26.68-15-19.55,0-33.84,11.1-33.84,27.88a33,33,0,0,0,.6,6.42M144.86,23.1h13.48L151.2,44.31c-4.45,13.07-7.41,23.4-8.9,33.18-1.21-8.95-4.44-20.38-8.62-31.39l-8.63-23h15.23V2.86H84.61V23.1H96.34l32.75,77.66h23.59L184,23.1h11.46V2.86H144.86Z" style="fill:#cf246c"/><circle cx="21.59" cy="25.97" r="1.5" style="fill:#a90641"/><circle cx="27.12" cy="25.97" r="1.5" style="fill:#a90641"/><circle cx="16.05" cy="25.97" r="1.5" style="fill:#a90641"/><path d="M84,79.38,65.32,60.61l6-6a1.09,1.09,0,0,0,0-1.55L57.84,39.68a1.1,1.1,0,0,0-1.55,1.57L68.94,53.92,63.74,59l-9.53-9.63a1.08,1.08,0,0,0-1.55,0,1,1,0,0,0-.33.7l-3,41.13a1.1,1.1,0,0,0,1.57,1.1l9.56-4.62,4.23,11.64a1.1,1.1,0,0,0,2.09-.69s0,0,0-.06L62.13,85.82a1.1,1.1,0,0,0-1.41-.66l-.1,0-9,4.3,2.7-36.83L80.92,79.45,69,81.65a1.1,1.1,0,0,0-.89,1.28l.06.2,4,10a1.1,1.1,0,1,0,2-.81l-3.46-8.8L83.37,81.2a1.11,1.11,0,0,0,.85-1.31A1.13,1.13,0,0,0,84,79.38Z" style="fill:#a90641"/><path d="M33.21,39.68a1.11,1.11,0,0,0-1.55,0L18.08,53.26a1.09,1.09,0,0,0,0,1.55L31.5,68.22a1.1,1.1,0,0,0,1.55-1.55L20.41,54l12.8-12.81A1.09,1.09,0,0,0,33.21,39.68Z" style="fill:#a90641"/><path d="M50.16,40,36.53,67A1.11,1.11,0,0,0,37,68.44,1.09,1.09,0,0,0,38.5,68L52.14,41a1.11,1.11,0,1,0-2-1Z" style="fill:#a90641"/><path d="M45.85,77.45H10.2V32.63H79.14V69.14a1.1,1.1,0,0,0,2.2,0V19.82a1.1,1.1,0,0,0-1.1-1.1H9.1A1.1,1.1,0,0,0,8,19.82V78.55a1.1,1.1,0,0,0,1.1,1.1H45.85a1.1,1.1,0,1,0,0-2.2ZM10.2,20.92H79.14V30.4H10.2Z" style="fill:#a90641"/></svg>