<svg xmlns="http://www.w3.org/2000/svg" xmlns:xlink="http://www.w3.org/1999/xlink" viewBox="0 0 198.47 346.36"><defs><clipPath id="a"><rect x="-588.08" y="-161.11" width="852.8" height="606.1" style="fill:none"/></clipPath><clipPath id="b"><path d="M83.72,12.79c-.5.4-1.4,1.2-3.1,2.8a5.24,5.24,0,0,0-1,1.1l-.1.1v-.1a7.39,7.39,0,0,1,0-2.1c-.1-.1-.6.5-1.2,1.7-2.3,4.8-.2,9.6.3,10.1a.47.47,0,0,0,.6.1l.4-.1a.75.75,0,0,1,.5-.1,12.25,12.25,0,0,1,1.9.2c3.9.8,7.8,1.6,12.1,2.5a.1.1,0,0,1,.1.1,3.86,3.86,0,0,1,1.1,1.7c.2.5.3.9.5,1.4a12.13,12.13,0,0,1,.5,1.4,5.83,5.83,0,0,1,.4,3.9v.7a.68.68,0,0,0,.4.6c.3.1.5,0,.7-.3l.7-1.2c1-1.7,1.6-1.8,3.5-1.6.3,0,.5.1.5.5a3.55,3.55,0,0,0,.2,1,.75.75,0,0,1,.1.5V38l-.1.4a17.23,17.23,0,0,1-.7,2.1l-.2.4a5.24,5.24,0,0,1-1,1.8c-.4.5-.4.8-.6,1a2.13,2.13,0,0,1-1.9-.1c.5.9,1,1.9,1.4,2.8a3.75,3.75,0,0,0,.7,1.2c.7.7,1.6.7,2.2,1.3a2.09,2.09,0,0,0,.6.4.75.75,0,0,0,.5.1h.1a.78.78,0,0,0,.4-.4l.2-.7c.1-.4.2-.7.3-1.1a2.94,2.94,0,0,1,1-1.8,14.84,14.84,0,0,0,2.8-3.3l.5-.7a10.59,10.59,0,0,0,1.9-5.1c.3-2.3.5-4.2.9-6.1a3.73,3.73,0,0,0-.3-2.1,17.55,17.55,0,0,0-2.9-4.7l-.6-.8a6.3,6.3,0,0,0-2.6-2,39.21,39.21,0,0,0-4.2-1.5c-1.7-.5-1.7-.4-2.9-.8-1.6-.6-1.6-.8-3.3-1.4-2.1-.7-2.5-.6-3.7-1.3a9.09,9.09,0,0,1-2.1-1.8l-.6-.6-.4,1.3c-.8-.9-1.4-1.9-1.1-2.6.1-.3.3-.5.3-.6h-.1a11.12,11.12,0,0,0-3.4,1.8" style="fill:none"/></clipPath><clipPath id="d"><path d="M98.42,147.09l-18.8,3.7c1,12.9,2,23.8,6.1,31.3a102.33,102.33,0,0,1,7,15.9c4.5,13,5.5,23.9,7.3,28.7a295.69,295.69,0,0,1,9.7,30.7c3.3,12.8,10.5,43.3,13,61.5.3,1.9.5,3.8.8,5.8.3.2.7,0,1.2-.3a2,2,0,0,1,1.5-.3c1.4.7,2.9,1.3,4.4,1.9,4.5,1.1,3.9,1.3,5.5.6-.1-1.1-.3-4.5-.6-6.8-1.8-17.1-2-37.6-3.2-51.6-.1-1.2-.2-2.4-.4-3.7a121,121,0,0,0-2.6-15.8c-.7-2.9-1.1-3.6-2.2-8-1.6-6.4-1.4-6.6-2.7-11.9-1.4-5.5-1.8-6.4-2.4-9.1,0,0-.5-2.1-.9-5.2a157.89,157.89,0,0,1-1-20.6c0-5,.2-8.5.2-8.5.6-13.7,1.4-17,1.1-20.3a27.41,27.41,0,0,0-.5-2.8,67.52,67.52,0,0,0-2.4-9.1,73.27,73.27,0,0,0-3.9-9.1l-16.2,3" style="fill:none"/></clipPath><clipPath id="e"><rect x="79.62" y="143.99" width="56.4" height="183.2" style="fill:none"/></clipPath></defs><title>man</title><g style="clip-path:url(#a)"><path d="M86.12,62.29c-2-2.8-7.8-.5-10.4.5-2.4.9-6.3,2.8-13.3,9.9a91.71,91.71,0,0,0-12,14.4C47,92.2,44.26,96.28,42.57,100c-.52,3.73-1,7.41-1.58,11,1.12,4.75,4.62,9.44,8.13,9.63s4.8-3.8,10.2-7.5a25,25,0,0,1,12-4.4l4.4-12.9c2-4.9,4.7-11.1,7.4-18.6C86.82,66.89,87.32,63.89,86.12,62.29Z" style="fill:#7565ab"/><path d="M86.12,62.29c-2-2.8-7.8-.5-10.4.5-2.4.9-6.3,2.8-13.3,9.9a91.71,91.71,0,0,0-12,14.4C47,92.2,44.26,96.28,42.57,100c-.52,3.73-1,7.41-1.58,11,1.12,4.75,4.62,9.44,8.13,9.63s4.8-3.8,10.2-7.5a25,25,0,0,1,12-4.4l4.4-12.9c2.1-4.9,4.7-11.1,7.4-18.6C86.82,66.89,87.32,63.89,86.12,62.29Z" style="fill:none;stroke:#533b95;stroke-miterlimit:10;stroke-width:0.6100000143051147px"/><path d="M93.62,304.59h0c-.1-1.6-2-1.9-3.1-2.4-.1,0-.2-.1-.3-.1-.4-.1-.8.3-1.9.5s-6.6.7-6.9-.4c0,0,0-.05,0-.07-3.33,2.51-10,7.09-16.64,9.34-.17,1.48-.34,3-.53,4.44,11.29.05,18.51-.36,19.27-1.21.1-.1.9-1.1,1.7-1,.4.1.5.8.9.8,4.5-.4,6.9-.6,7.5-1.3S93.82,309.19,93.62,304.59Z" style="fill:#1e170e"/><path d="M73,151.29c.9,17.1,1.6,31,2.1,40.4.7,11.5,1.4,24.9,2.6,42.5,1.5,22.8,1.7,22.8,2.2,34,.5,10.1,1.1,15.3,1,31.5v2.9a23.64,23.64,0,0,0,7.6,2.6,22.68,22.68,0,0,0,8.2-.4c-.6-10.8-.3-11.5.2-17.4,1.1-13.3,3.3-19.3,2.9-30.8a90.12,90.12,0,0,0-2.8-20c.6-9.1,1.7-24.4,3.4-43.6,2.7-29.1,4.5-40-1.2-45.1-2-1.9-8.5-6-26.2,3.4" style="fill:#533b95"/><path d="M76.12,64.29c4.1-8.3,9.7-3.2,18.1-5.7-.5,2.8,7.8,2.1,7.6,4.9-.3,3.9-8.8,11.1-8.7,15,.1,7,.5,14.2,2.6,20.9a56,56,0,0,0,4.5,9.6c1.9,3.5,3.1,7.3,4.9,10.8,3.4,6.5,7.9,12.4,10.9,19.1a48.84,48.84,0,0,0-4,8.3,7.22,7.22,0,0,1-.9,2,9.62,9.62,0,0,1-1.8,2.2c-3.3,3-15.1,1-15.2,1a44.57,44.57,0,0,1-19.2-1.5,15.17,15.17,0,0,1-2.6-3.5,15.52,15.52,0,0,1-1.5-7.9c.1-2.7-.5-7.1-.9-16.1-.6-15.1-2.8-13.7-2.7-23.7.1-6.1.7-13.3,5.1-26.6.6-1.5,3.7-8.5,3.8-8.8" style="fill:#fff"/><path d="M76.12,64.19a9.38,9.38,0,0,1,3.2-3.9,8.52,8.52,0,0,1,4.9-1.2c1.7,0,3.4.1,5.1.1a20.88,20.88,0,0,0,5-.8h.1v.1a1.35,1.35,0,0,0,.5,1.2,3.1,3.1,0,0,0,1.3.6c.9.3,1.9.5,2.8.8a5,5,0,0,1,2.6,1.3,1.24,1.24,0,0,1,.3,1.4,1.85,1.85,0,0,1-.2.7c-.1.2-.2.5-.3.7a37.38,37.38,0,0,1-3.2,4.9,50.87,50.87,0,0,0-3.4,4.7,10.54,10.54,0,0,0-1.3,2.6,8.83,8.83,0,0,0-.2,2.8,56.33,56.33,0,0,0,.3,5.8,54.21,54.21,0,0,0,1.8,11.4,41.25,41.25,0,0,0,4.5,10.6c2,3.4,3.2,7.1,4.8,10.6,3.4,7,8.2,13.1,11.4,20.2-.9,1.7-1.8,3.3-2.6,5-.4.9-.8,1.7-1.1,2.6a12,12,0,0,1-1.1,2.6h-.1a6.25,6.25,0,0,1-3.3,3.1,14.35,14.35,0,0,1-4.6.8,46.93,46.93,0,0,1-9.2-.6h.1a45.15,45.15,0,0,1-19.3-1.5,13.76,13.76,0,0,1-3.1-4.7,14.87,14.87,0,0,1-1-5.5,26.15,26.15,0,0,0,0-2.8c-.1-.9-.1-1.9-.2-2.8l-.4-5.6c-.3-3.7-.3-7.4-.6-11.1-.2-1.9-.4-3.7-.7-5.5s-.7-3.6-1.1-5.5a46.54,46.54,0,0,1-.5-11.2,67.84,67.84,0,0,1,1.6-11,108.73,108.73,0,0,1,3-10.8,46.53,46.53,0,0,1,2-5.2c.7-1.5,1.5-3.2,2.2-4.9m.1,0c-.8,1.7-1.5,3.4-2.2,5.1a46.53,46.53,0,0,0-2,5.2c-1.1,3.5-2.1,7.1-2.9,10.8a67.68,67.68,0,0,0-1.5,11,41.44,41.44,0,0,0,.6,11.1c.4,1.8.8,3.6,1.1,5.5s.5,3.7.7,5.5c.3,3.7.4,7.4.6,11.1l.4,5.6c.1.9.1,1.9.2,2.8a26.15,26.15,0,0,1,0,2.8,14.36,14.36,0,0,0,1,5.4,12.7,12.7,0,0,0,3,4.5h-.1a42.64,42.64,0,0,0,19.1,1.5,55.79,55.79,0,0,0,9.1.7,14.23,14.23,0,0,0,4.5-.8,7.61,7.61,0,0,0,1.9-1.2,5.5,5.5,0,0,0,.7-.9l.3-.5.4-.4-.1.1a12,12,0,0,0,1.1-2.6,20.29,20.29,0,0,1,1.1-2.6c.8-1.7,1.7-3.4,2.6-5v.1c-3.1-7.1-7.9-13.3-11.4-20.2-1.7-3.5-2.9-7.2-4.9-10.5a44.33,44.33,0,0,1-4.6-10.7,56.2,56.2,0,0,1-1.8-11.5c-.1-1.9-.2-3.9-.3-5.8a9.25,9.25,0,0,1,.2-2.9,12.64,12.64,0,0,1,1.3-2.6c1.1-1.6,2.3-3.1,3.5-4.7a30.83,30.83,0,0,0,3.2-4.8,4.88,4.88,0,0,0,.3-.7,1.45,1.45,0,0,0,.2-.7,1.26,1.26,0,0,0-.2-1.3,5.82,5.82,0,0,0-2.5-1.2c-.9-.3-1.9-.5-2.8-.8a5.39,5.39,0,0,1-1.3-.7,2.65,2.65,0,0,1-.5-.6,2,2,0,0,1-.1-.8l.1.1a20.88,20.88,0,0,1-5,.8c-1.7.1-3.4-.1-5.1-.1a8.74,8.74,0,0,0-4.8,1.1,9.38,9.38,0,0,0-3.2,3.9" style="fill:#2f368f"/><path d="M90.92,116c-1.4,1.2,7.5,9.8,8.8,23.6.9,9-1.8,16.9-4.6,22.6,8.5,4.1,9.4,1.7,10.4,1.1,6.9-4.3,7.4-19.6,2.8-29.5-5.7-11.8-16-19-17.4-17.8" style="fill:#d2dbea"/><path d="M107,59.09a26.49,26.49,0,0,1-2-4.9c-.8-2.8-.3-3.1-1.1-4.7,0,0-1.8-3.3-2.1-4.2-.1-.3-.1-.6-.2-.9v-.9c0-.2,1.3-1.2,1.1-1.3s-.8,1-1.2,1.3a1.05,1.05,0,0,0-.5.9,3.27,3.27,0,0,1-1.5,2.4,3.51,3.51,0,0,1-.8.5,9.13,9.13,0,0,1-1.3.8,27.55,27.55,0,0,1-8.8,3.3,14.16,14.16,0,0,0-2,.4l-.8.2c-.2,0-.9,0-.9.2a29,29,0,0,1-.1,5.1c-.1,1.6-.4,1.8-.5,4.1a6.26,6.26,0,0,0,.3,2.7,5.09,5.09,0,0,0,2.8,2.4c4.4,1.9,10.3-.6,11.7-1.3a24.36,24.36,0,0,0,7.9-6.1" style="fill:#f8b1a8"/><path d="M83.72,63.39c0,.3,1.4-.4,1.8-1.9a33.33,33.33,0,0,1,.8-3.9c1-2.4,5.9-4.7,10.8-6.9,7.4-3.4,4.9-4,6.2-5.8s.5-6.5.5-6.5-8.9,2.6-9.1,3-3.3,5-4.8,5.7-4.8,3.9-4.8,3.9Z" style="fill:#f49a95"/><path d="M111.52,27.79h0a17.55,17.55,0,0,0-2.9-4.7l-.6-.8a6.3,6.3,0,0,0-2.6-2,39.21,39.21,0,0,0-4.2-1.5c-1.7-.5-1.7-.4-2.9-.8-1.6-.6-1.6-.8-3.3-1.4-2.1-.8-2.6-.6-3.7-1.3a9.09,9.09,0,0,1-2.1-1.8l-.6-.6-.4,1.3c-.8-.9-1.4-1.9-1.1-2.6.1-.3.3-.5.3-.6a11.9,11.9,0,0,0-3.5,1.8c-.5.4-1.4,1.2-3.1,2.8a5.24,5.24,0,0,0-1,1.1l-.1.1a.1.1,0,0,0-.1-.1,7.39,7.39,0,0,1,0-2.1c-.1-.1-.6.5-1.2,1.7a11.47,11.47,0,0,0-.67,1.78c-.07.39-.15.78-.24,1.18a10.78,10.78,0,0,0,1.21,7.14.47.47,0,0,0,.6.1l.4-.1a.75.75,0,0,1,.5-.1,12.25,12.25,0,0,1,1.9.2c3.9.8,7.8,1.6,12.1,2.5a.1.1,0,0,1,.1.1,3.86,3.86,0,0,1,1.1,1.7l.5,1.4a12.13,12.13,0,0,1,.5,1.4,5.83,5.83,0,0,1,.4,3.9v.7a.68.68,0,0,0,.4.6c.3.1.5,0,.7-.3l.7-1.2c1-1.7,1.6-1.8,3.5-1.6.3,0,.5.1.5.5a3.55,3.55,0,0,0,.2,1,4.33,4.33,0,0,1,.1.5V38l-.1.4a17.23,17.23,0,0,1-.7,2.1l-.2.4a5.24,5.24,0,0,1-1,1.8c-.4.5-.4.8-.6,1a2.13,2.13,0,0,1-1.9-.1c.5.9.9,1.9,1.4,2.8a2.52,2.52,0,0,0,.7,1.2c.7.7,1.6.7,2.2,1.3.2.1.4.3.6.4a.75.75,0,0,0,.5.1h.1a.78.78,0,0,0,.4-.4l.2-.7c.1-.4.2-.7.3-1.1a2.94,2.94,0,0,1,1-1.8,14.32,14.32,0,0,0,2.8-3.2l.5-.7a10.23,10.23,0,0,0,1.9-5.1c.3-2.3.5-4.2.9-6.1A14.55,14.55,0,0,0,111.52,27.79Z" style="fill:#563b92"/><path d="M86,57.79a16.44,16.44,0,0,0,2.2-1.4c.7-.5,1.4-.9,2.1-1.4,1.4-1,2.8-2,4.1-3a24.09,24.09,0,0,0,3.7-3.4,4.78,4.78,0,0,0,1-2.3,5.28,5.28,0,0,0,.1-1.3,1.27,1.27,0,0,0-.1-.6.64.64,0,0,1,0-.6.64.64,0,0,0,0,.6,1.27,1.27,0,0,1,.1.6,2.85,2.85,0,0,1,0,1.3,5,5,0,0,1-.9,2.4,20.47,20.47,0,0,1-3.7,3.5c-1.4,1-2.7,2-4.2,3a28.22,28.22,0,0,1-4.4,2.6" style="fill:#c83c38"/><path d="M99,43.69c.3-.1.7,0,1.1-.2a2.7,2.7,0,0,0,.8-.7,11.78,11.78,0,0,0,1.1-1.9,11.92,11.92,0,0,0,.8-2,3.86,3.86,0,0,0,.3-2.1,2.45,2.45,0,0,0-1.1-1.7,1.73,1.73,0,0,0-1-.1,3,3,0,0,0-1,.4,4,4,0,0,0-1.4,1.5,4.18,4.18,0,0,0-.4,1,.32.32,0,0,1-.3.3.37.37,0,0,0-.3.1h-.5l-.2.1v-.2a11.88,11.88,0,0,0-.8-6.2l-.6-1.5a1.65,1.65,0,0,0-1-1c-1-.4-2-.7-3-1.1a26.94,26.94,0,0,0-6.2-1.6l-3.2-.5a8.75,8.75,0,0,0-1.6-.2,1.72,1.72,0,0,0-1.2,1,1.55,1.55,0,0,1,1.2-1h.8l.8.1c1.1.1,2.1.2,3.2.4a24.05,24.05,0,0,1,6.3,1.5c1,.4,2,.7,3,1.1a2.34,2.34,0,0,1,1.2,1.2,10.09,10.09,0,0,1,.7,1.5,12.63,12.63,0,0,1,.8,6.4l-.2-.2a1.27,1.27,0,0,0,.6-.1.37.37,0,0,0,.3-.1,4.87,4.87,0,0,1,.4-1.1,3.54,3.54,0,0,1,1.6-1.6,3.58,3.58,0,0,1,1.1-.4,1.27,1.27,0,0,0,.6-.1,1.42,1.42,0,0,1,.6.2,3,3,0,0,1,1.2,1.9,2,2,0,0,1,0,1.1c-.1.4-.2.7-.3,1.1a11.92,11.92,0,0,1-.8,2,7.61,7.61,0,0,1-1.2,1.9,2.7,2.7,0,0,1-.8.7c-.7.2-1.1,0-1.4.1" style="fill:#292764"/><path d="M79.22,27a18.64,18.64,0,0,0-1,3.9c-.2,1.3-.3,2.7-.4,4a4,4,0,0,0,.9,2.1.78.78,0,0,0,.4.4.88.88,0,0,1,.1.7l-.5,1.1c-.6,1.4-1.2,2.9-1.8,4.4-.3.7-.5,1.4-.8,2.2,0,.2,0,.3.1.4l.2.2c.1.1.1.1.2.1a4.25,4.25,0,0,0,1.1.2,1.42,1.42,0,0,1,.6.2c.1.1.2.3.1.4l-.1.3-.4,1.1c-.1.2-.1.4-.2.5s-.1.2.1.4a1.78,1.78,0,0,0,1,.4l.4.1-.3.2c-.1.1-.2.1-.2.2s-.1.2-.1.4v.3l.3.3a1.38,1.38,0,0,1,.3.4c0,.1.1.1.1.2v2.1c0,.3-.1.6-.1.9a4.15,4.15,0,0,0,.3,1.6,2.21,2.21,0,0,0,1.3,1,4.68,4.68,0,0,0,1.7.2,19.3,19.3,0,0,0,3.4,0,19.33,19.33,0,0,1-3.4.1,4.68,4.68,0,0,1-1.7-.2,2.21,2.21,0,0,1-1.4-1.1A3.29,3.29,0,0,1,79,55c0-.3.1-.6.1-.9v-1.9c0-.1-.1-.1-.1-.2l-.6-.6a.9.9,0,0,1-.1-.5c0-.2.1-.3.1-.4a.78.78,0,0,1,.4-.4l.1.3a3.7,3.7,0,0,1-1.1-.5c-.1-.1-.2-.2-.2-.3v-.4c.1-.2.1-.4.2-.6l.4-1.1.1-.3v-.1a.9.9,0,0,0-.5-.1,5,5,0,0,1-1.2-.2c-.1,0-.2-.1-.3-.2l-.2-.2a1.45,1.45,0,0,1-.2-.7,20.94,20.94,0,0,1,.8-2.3c.6-1.5,1.2-2.9,1.8-4.4l.5-1.1a.3.3,0,0,0,0-.4,2.18,2.18,0,0,1-.4-.5,4.3,4.3,0,0,1-.9-2.3c.1-1.3.3-2.7.5-4a9.35,9.35,0,0,1,1-3.7" style="fill:#fdd5a6"/></g><g style="clip-path:url(#b)"><path d="M98.32,33.69a6.1,6.1,0,0,0-1.9-5.1c-2.2-1.9-2.2-2.3-7.5-3.6s-4.4-.9-8-3.1c-1.3-.83-2.5-1.61-3.5-2.27-.35,1.58-.76,3.17-1.23,4.75l2.73,3.82s8.9,2.9,9.3,3.3,6.7,7.2,6.7,7.2l3.8-.3S98.32,34.09,98.32,33.69Z" style="fill:#3d2e7c"/></g><g style="clip-path:url(#a)"><path d="M101.62,34.89a3.73,3.73,0,0,0-3.5,3c0,.2-.7.2-1,.3a12.38,12.38,0,0,0-1.6-8,1.59,1.59,0,0,0-1-.8l-.9-.3c-1.2-.5-2.5-.9-3.8-1.3a55.79,55.79,0,0,0-6.9-1.3l-2-.3a1.43,1.43,0,0,0-1.6,1c-1.1,2.5-1.5,7.9-1.5,7.9a4.2,4.2,0,0,0,1.2,2.6.64.64,0,0,1,0,.6c-.5,1.3-2.3,5.2-3,7.4a.91.91,0,0,0,.3,1c.5.5,2.2.2,2.1.8,0,.2-.4,1.2-.4,1.4s-.3.7-.3,1,1,.6,1.2.7a1,1,0,0,0-.4.5c-.3.9.3.6.7,1.4v2.3A2.57,2.57,0,0,0,81,58a1.7,1.7,0,0,0,.7.1,30.85,30.85,0,0,0,4.3,0,36.46,36.46,0,0,0,6.5-4.6l.2-.2a21.05,21.05,0,0,0,4.5-3.9,5.6,5.6,0,0,0,1.8-4.9,1.15,1.15,0,0,1,0-.6c0-.1.3,0,.8-.1,1.2-.1,3-3.6,3.4-6.1.2-1-.7-2.7-1.7-2.8" style="fill:#f9bcb0"/><path d="M78.72,50.19a12.1,12.1,0,0,0,1.9-.1,6.36,6.36,0,0,0,1.8-.6,4.94,4.94,0,0,1-1.8.8,6.28,6.28,0,0,1-1.9.3Z" style="fill:#c83c38"/><path d="M80.22,86.39c.1-1.5,1.5-14.9,2.7-16.6a35.42,35.42,0,0,1,3.5-4.2c.4,1.2,1.9,2.6,1.8,4a60.32,60.32,0,0,0,8-4.1c-1.3,1.6-5.6,6.2-6.8,7.7a42.91,42.91,0,0,0-3.6,4.8c-1.1,1.7-2.3,3.3-3.4,4.9-.1,0-2.1,3.5-2.2,3.5" style="fill:#fff"/><path d="M82.62,63.79c-1.1,2.3-2.2,5-2.2,6.2,0,.4-6.2,9.1-7,10.4-.4-1.2,3.4-13.9,4.7-16.1.4.3,4.3-.3,4.5-.5" style="fill:#fff"/><path d="M83.22,69.89c-.5-.4-.4-1.9-2.5-1.6a5.13,5.13,0,0,1,.7-4c1.1-.9,4.1.5,4.2.9.2.7.4,1.1.6,1.9l-3,2.8" style="fill:#ed2b2f"/><path d="M85,64.89a9.13,9.13,0,0,1,.8,1.3,6.89,6.89,0,0,1,.3.8,1.41,1.41,0,0,1-.1.9,2.18,2.18,0,0,1-.5.8c-.2.2-.4.3-.6.5a9.13,9.13,0,0,1-1.3.8,14.63,14.63,0,0,1,.9-1.3c.1-.2.4-.4.5-.6a2.19,2.19,0,0,0,.3-.5,2,2,0,0,0-.1-1.3,5.9,5.9,0,0,1-.2-1.4" style="fill:#c1272d"/><path d="M107.92,57.79l-4.7,3.9c-1.6,1.3-3.1,2.5-4.8,3.8a46.58,46.58,0,0,1-5.3,3.2c-.9.5-1.8,1-2.7,1.4a14.46,14.46,0,0,1-2.9,1.1l-.6.2.1-.6a8,8,0,0,0-.3-3.1c-.3-1-.8-2-1.2-3.1a26.94,26.94,0,0,1,1.6,2.9,6.65,6.65,0,0,1,.6,3.4l-.5-.4q2.7-1.2,5.4-2.7c1.8-1,3.5-2,5.2-3.1.8-.5,1.6-1.2,2.4-1.8l2.5-1.8c1.8-1.2,3.5-2.3,5.2-3.3" style="fill:#ca94c1"/><path d="M105.72,55.39c.8.8,1.3,1.6,2.2,2.4-.5.3-7.7,4.9-8.8,5.7-2.2,1.8-8.9,6.2-11.1,6.8,0-2.4-1.5-3.2-2.5-5.4.8-.3,17-6.4,20.2-9.5" style="fill:#fff"/><path d="M83.92,64.19a9.37,9.37,0,0,0-3.2,1.1c-1,.5-1.9,1.3-2.9,1.9l-.9.5.2-1.1a10.44,10.44,0,0,1,2.3-5,5.33,5.33,0,0,1,2.3-1.6,6.35,6.35,0,0,1,2.7-.4,8.54,8.54,0,0,0-2.4.9,5.81,5.81,0,0,0-1.8,1.7,9.41,9.41,0,0,0-1.2,2.2,10.88,10.88,0,0,0-.7,2.4l-.8-.5c1-.5,1.9-1.1,3.1-1.6a5.17,5.17,0,0,1,3.3-.5" style="fill:#ca94c1"/><path d="M83.92,64.19c-3.3.1-4,1.2-6.4,2.4.3-1.9,1-6.8,6-7.1.4,2.3.2,3.2.4,4.7" style="fill:#fff"/><path d="M83,59.19a10.05,10.05,0,0,0-4.5,2.5c-1.6,1.6-2.4,3.4-3.7,6.6-.7,1.7-1.1,3.1-1.2,3.3a137.28,137.28,0,0,0-4.5,21.9c-.3,3-.6,5.5-.8,7.8-.1,1.2-.1,3.8,0,7.3a98.79,98.79,0,0,0,1.1,10.8c.4,2.9.6,4,.6,4a72.56,72.56,0,0,1-3.6-21.7,139.7,139.7,0,0,1,1.9-23,35.68,35.68,0,0,1,.6-3.7l3.7-3.4-2.4.1a2.38,2.38,0,0,1,.6-1.1c2.1-3.2,2.6-5.4,5.4-8.1,2.2-2.1,4.2-3.4,6.8-3.3" style="fill:#7565ab"/><path d="M83,59.19a12.62,12.62,0,0,0-3.3,1.6,10.3,10.3,0,0,0-2.5,2.6,16.82,16.82,0,0,0-1.6,3.3l-.7,1.7-.6,1.7a56,56,0,0,0-2,7q-.9,3.6-1.5,7.2c-.4,2.4-.9,4.8-1.2,7.3s-.5,4.9-.8,7.3a66.81,66.81,0,0,0,0,14.6c.3,2.4.6,4.9,1,7.3l.3,1.8.1.5v.3c-.2.2-.3-.1-.3,0v-.2l-.3-.9c-.4-1.2-.7-2.4-1-3.5a79.18,79.18,0,0,1-2.2-14.6c-.5-9.9.9-19.6,2.4-29.3v-.1l.1-.1,3.7-3.4.2.4-2.4.1h-.2v-.2a2.38,2.38,0,0,1,.6-1.1,8.79,8.79,0,0,0,.6-1c.4-.7.8-1.4,1.2-2a21.11,21.11,0,0,1,2.6-4,21.09,21.09,0,0,1,3.6-3.1,5.67,5.67,0,0,1,4.2-1.2,9.08,9.08,0,0,0-2.3.3,10,10,0,0,0-2.1,1,25.86,25.86,0,0,0-3.5,3.1,19.91,19.91,0,0,0-2.5,3.9c-.4.7-.7,1.4-1.1,2.1-.2.3-.4.7-.6,1a4.05,4.05,0,0,0-.5.9l-.2-.2,2.4-.1h.6l-.4.4L69.12,75l.1-.1c-.7,4.8-1.4,9.7-1.9,14.6a102.31,102.31,0,0,0-.5,14.6,79.06,79.06,0,0,0,2,14.5,35.74,35.74,0,0,0,1,3.5l.3.9v.1c0,.1,0-.1-.2,0v-.2l-.1-.5-.3-1.8c-.3-2.4-.6-4.9-.9-7.3a60.08,60.08,0,0,1-.4-7.4,45.82,45.82,0,0,1,.3-7.4c.2-2.4.4-4.9.7-7.3s.7-4.9,1.2-7.3,1-4.8,1.6-7.2,1.3-4.8,2.1-7.1l.6-1.7.7-1.7a25.86,25.86,0,0,1,1.7-3.3,10.1,10.1,0,0,1,6-4.1" style="fill:#533b95"/><path d="M87.82,137.29a102.1,102.1,0,0,1-5-67.6,8.27,8.27,0,0,0-.9-1.6,145.27,145.27,0,0,0-6.4,32c-1.6,17-1.2,30.8.9,41.2l8,4.3,3.4-8.3" style="fill:#ed2b2f"/><path d="M87.82,137.29a104.55,104.55,0,0,1-5.6-16.3,101.72,101.72,0,0,1,.4-51.4v.2c-.2-.3-.3-.5-.5-.8s-.3-.5-.4-.8l.5-.1c-3.9,11.7-5.7,24-6.7,36.3-.5,6.1-.7,12.3-.6,18.5a113.34,113.34,0,0,0,1.6,18.4l-.1-.2,8,4.3-.2.1Zm.1,0-3.3,8.3-.1.2-.2-.1-8-4.2h-.1v-.1a114.85,114.85,0,0,1-1.9-18.4c-.1-6.2,0-12.4.5-18.5a155.06,155.06,0,0,1,6.8-36.3l.2-.6.3.5a5.9,5.9,0,0,1,.4.8c.1.3.3.5.4.8l.1.1v.1a102.07,102.07,0,0,0-.7,51.2,114.82,114.82,0,0,0,5.6,16.2" style="fill:#c1272d"/><path d="M113.82,332.79c-.6.8-.2,3-.2,3s10.9,1.6,14.5.8a20.88,20.88,0,0,0,4-1.9c.3-.1.7-1.1.9-1.2.4-.3.7.2,1,0,.6-.4,1.2-.8,1.7-1.2,1-5.5-.2-7.7-.2-7.7s-9.3-3.6-11-1.3c-4.3,5.4-9.3,7.8-10.7,9.5" style="fill:#1e170e"/></g><path d="M98.42,147.09l-18.8,3.7c1,12.9,2,23.8,6.1,31.3a102.33,102.33,0,0,1,7,15.9c4.5,13,5.5,23.9,7.3,28.7a295.69,295.69,0,0,1,9.7,30.7c3.3,12.8,10.5,43.3,13,61.5.3,1.9.5,3.8.8,5.8.3.2.7,0,1.2-.3a2,2,0,0,1,1.5-.3c1.4.7,2.9,1.3,4.4,1.9,4.5,1.1,3.9,1.3,5.5.6-.1-1.1-.3-4.5-.6-6.8-1.8-17.1-2-37.6-3.2-51.6-.1-1.2-.2-2.4-.4-3.7a121,121,0,0,0-2.6-15.8c-.7-2.9-1.1-3.6-2.2-8-1.6-6.4-1.4-6.6-2.7-11.9-1.4-5.5-1.8-6.4-2.4-9.1,0,0-.5-2.1-.9-5.2a157.89,157.89,0,0,1-1-20.6c0-5,.2-8.5.2-8.5.6-13.7,1.4-17,1.1-20.3a27.41,27.41,0,0,0-.5-2.8,67.52,67.52,0,0,0-2.4-9.1,73.27,73.27,0,0,0-3.9-9.1l-16.2,3" style="fill:#62569d"/><g style="clip-path:url(#d)"><rect x="79.62" y="143.99" width="56.4" height="183.2" style="fill:#62569d"/><g style="clip-path:url(#e)"><rect x="79.62" y="143.99" width="56.4" height="183.2" style="fill:#62569d"/></g></g><g style="clip-path:url(#a)"><path d="M117.42,140.59l2.5,2.2-.1,4.7c-10.3,1.1-18.4,3.6-24.3,4.4-5.1.7-10.5,1.8-17.6.9-2.2-.3-4.3-.7-6.4-1.2v-4.5a30.56,30.56,0,0,0,6,1.3,38.54,38.54,0,0,0,4.8.2c16.4-.6,26.3-4.1,26.3-4.1a69.22,69.22,0,0,0,8.8-3.9" style="fill:#6c2913"/><path d="M117.42,140.59l2.5,2.2-.1,4.7c-10.3,1.1-18.4,3.6-24.3,4.4-5.1.7-10.5,1.8-17.6.9-2.2-.3-4.3-.7-6.4-1.2v-4.5a30.56,30.56,0,0,0,6,1.3,38.54,38.54,0,0,0,4.8.2c16.4-.6,26.3-4.1,26.3-4.1a69.22,69.22,0,0,0,8.8-3.9Z" style="fill:none;stroke:#2f368f;stroke-miterlimit:10;stroke-width:0.27000001072883606px"/><path d="M78.42,148.09c.3,2,.6,3.9.9,5.9l5.2.1-.8-6.5-5.3.5" style="fill:#b2b3b4"/><path d="M78.42,148.09c.3,2,.6,3.9.9,5.9l5.2.1-.8-6.5Z" style="fill:none;stroke:#2f368f;stroke-miterlimit:10;stroke-width:0.27000001072883606px"/><path d="M84.92,147.49l.4,6.6c-.8-.3-.7.2-1.5,0-.1-1.6-.7-4.9-.7-6.5l.3-.1h1.5" style="fill:#f3f3f3"/><path d="M84.92,147.49l.4,6.6c-.8-.3-.7.2-1.5,0-.1-1.6-.7-4.9-.7-6.5l.3-.1Z" style="fill:none;stroke:#2f368f;stroke-miterlimit:10;stroke-width:0.27000001072883606px"/><path d="M93.32,146.09l1.1,7.3,3-.4-1.5-7.3-2.6.4" style="fill:#62569a"/><path d="M108.82,143.39l2,6.9,3-.8c-.9-2.5-1.9-4.9-2.8-7.4l-2.2,1.3" style="fill:#533b95"/><path d="M82.52,148.29c.3,1.4.5,2.9.8,4.3l-3,.4c-.3-1.3-.5-2.6-.8-3.9l3-.8" style="fill:#6c2913"/><path d="M82.52,148.29c.3,1.4.5,2.9.8,4.3l-3,.4c-.3-1.3-.5-2.6-.8-3.9Z" style="fill:none;stroke:#2f368f;stroke-miterlimit:10;stroke-width:0.27000001072883606px"/><path d="M97.92,94.79c1.2-3.4,2.6-6.8,4.1-10.1.9-1.8,1.6-3.7,2.6-5.5a76.57,76.57,0,0,1,9.4-2.5,54.53,54.53,0,0,0,15.1-5.9c-.7,9.1-4.2,17.4-6.7,26a124.36,124.36,0,0,0-2.8,13.5,19.65,19.65,0,0,0-1.3,2.5,41.46,41.46,0,0,0-6.4,9.1,42.14,42.14,0,0,0-4,19.8c-3-3.9-6.5-8.7-10.9-15-3.1-4.6-5.3-7.9-6.9-10.6,3.2-7.1,5.4-14.3,7.8-21.3" style="fill:#533b95"/><path d="M90.12,82.39c1.9-3.1,2.3-2.2,6.2-7.5a73.37,73.37,0,0,0,7.2-12l4.5-4.4c4.8,1.2,22.8,6.1,26.8,19.6,1.6,5.2.5,9.8-1.4,17.7-4.6,19.7-13.3,24.5-10.5,34.2,1,3.4,4.1,6.1,8.5,12.8,9.9,15,10.5,16.9,10.7,18.7,1.4,9-3,16.8-4.9,19.6a28.77,28.77,0,0,1-8,8.3,70.9,70.9,0,0,0-5.2-23.6c-5-11.9-10.3-15-26-37.8-8.3-12-10-15.9-10.9-20.7-.5-2.8-3-14.9,3-24.9" style="fill:#7565ab"/><path d="M107.92,57.79c.3.4-5,6.1-7,13.4a23.53,23.53,0,0,0-.6,6.5L94.92,80l3.1,5.6a30.17,30.17,0,0,0-5.5,8.9,33.26,33.26,0,0,0-2.1,17.1,31.66,31.66,0,0,0,2.2,8,25.88,25.88,0,0,0,5.6,8.3A39.47,39.47,0,0,1,86,90.39a43.5,43.5,0,0,1,8.2-18.8c6.2-8.4,13.3-14.2,13.7-13.8" style="fill:#7565ab"/><path d="M107.92,57.79c0,.3-.2.4-.3.6l-.4.6-.8,1.1c-.5.8-1,1.5-1.5,2.3a27.3,27.3,0,0,0-2.5,4.8,30.52,30.52,0,0,0-1.7,5.1,24.49,24.49,0,0,0-.3,5.4v.1l-.1.1L95,80.29l.1-.3,3.2,5.5.1.1-.1.1c-7.1,7.9-9.6,19.5-6.9,29.8a27.67,27.67,0,0,0,3.1,7.3,32.89,32.89,0,0,0,2.3,3.3c.4.5.9,1,1.3,1.5l.3.3s0-.1-.1,0,0,.3,0,.2l-.4-.3-.7-.7a39.18,39.18,0,0,1-12-28.9,46.55,46.55,0,0,1,3-15.7,47.31,47.31,0,0,1,8.3-13.6,75.52,75.52,0,0,1,5.4-5.9c1-.9,1.9-1.8,2.9-2.7.5-.4,1-.9,1.5-1.3.3-.2.5-.4.8-.6.1-.1.3-.2.4-.3s.3-.4.4-.3m.1,0a2,2,0,0,0-.8.4c-.3.2-.5.4-.8.6-.5.4-1,.9-1.5,1.3a38.33,38.33,0,0,0-2.9,2.8c-1.9,1.9-3.6,3.9-5.3,5.9a48.29,48.29,0,0,0-8,13.7c-3.7,9.9-4.1,21.2,0,31a38.78,38.78,0,0,0,8.8,13.1l.7.7.4.3c0-.1.1.2,0,.2h-.2l-.3-.3a17.38,17.38,0,0,1-1.3-1.5,27.49,27.49,0,0,1-2.3-3.3,28.32,28.32,0,0,1-3.1-7.4,34.18,34.18,0,0,1-.4-15.9,31.31,31.31,0,0,1,7.1-14.2v.3L94.92,80l-.1-.2.2-.1,5.4-2.3-.1.2a19.41,19.41,0,0,1,.4-5.4,22.05,22.05,0,0,1,1.8-5.1,44.49,44.49,0,0,1,2.6-4.8c.5-.8,1-1.5,1.5-2.3l.8-1.1a2.38,2.38,0,0,0,.6-1.1" style="fill:#533b95"/><path d="M84.72,115.59l-4.6-6.8c-.9.7-23.8-2.3-27.1-2.5-3-.2-2.9-4-6.3-4.2-3.1-.1-4.5,5.6-4.6,6.1s-1.5,5.8,1.5,10c.1.1.2.3.4.5,13.1,3,28.2,3.4,40.7-3.1" style="fill:#7565ab"/><path d="M43.92,118.69c1.2,1.4,4.4,4,13.6,4.5,5.7.3,15.9-.1,28.3-6l-1.1-1.6c-12.5,6.5-27.6,6.1-40.8,3.1" style="fill:#533b95"/><path d="M100.62,106.89c4,3,2,8,5,11,1-2-1-5-1-7,0,3,4,2,4,4a2.15,2.15,0,0,0,2-2c-2,0-3-2-5-1-1-3-2-6-5-6,0-.7-.1-.9-.4-.9-.1.4-.2.8-.3,1.1a2.7,2.7,0,0,1,.7.8" style="fill:#7565ab"/><path d="M129.62,70.09a16,16,0,0,0-7.1-1.9,17.25,17.25,0,0,0-10.5,3.3c-7.5,5.3-6.3,12.5-11.8,33.5.2,0,.4.2.4.9,3,0,4,3,5,6,2-1,3,1,5,1a2.15,2.15,0,0,1-2,2c0-2-4-1-4-4,0,2,2,5,1,7-3-3-1-8-5-11a2.7,2.7,0,0,0-.7-.8c-.4,1.6-.9,3.3-1.4,5.1-2.1,7.4-3.5,10.7-1.6,13.3,2.1,2.8,7.1,3.7,12.3,2.9,16.8-12.4,25.9-36.5,20.4-57.3" style="fill:#7565ab"/><path d="M132.92,73.09a9.84,9.84,0,0,0-3.4-3c5.6,20.9-3.5,45-20.3,57.4a22.17,22.17,0,0,0,9.2-3.6c4.3-3,7.3-10.9,13.5-26.7a52,52,0,0,0,2.2-7.7,38.25,38.25,0,0,0,.7-5.8c.3-4.2.2-7.6-1.9-10.6" style="fill:#533b95"/><path d="M89.12,104.89l6.3-5.7,7.2-5.5s7-3.6,7.1-2.3-.4,1.6-.4,1.6l-3.7,1.8-1.4,2.1s6.3-.3,6.8.2c1,.9.8,3.8.1,4.3s-4.7,1-4.7,1l3.4,1.3s.5,1.5-.9,1.9-4.2-1.2-6.3.7-7.6,6.4-10.5,6.9-5.1-6.4-5.1-6.4Z" style="fill:#f6b893"/><path d="M104.62,110.89c0,3,4,2,4,4a2.15,2.15,0,0,0,2-2c-2,0-3-2-5-1a20,20,0,0,0-1.7-4h-.1l-2.5-.4c3.1,3,1.5,7.6,4.3,10.4,1-2-1-5-1-7" style="fill:#533b95"/><path d="M118.62,113.09c-4.6-3.1-9.2-4.2-14.7-5.1a15.22,15.22,0,0,1,1.6,4c2-1,3,1,5,1a2.15,2.15,0,0,1-2,2c0-2-4-1-4-4,0,2,2,5,1,7-2.8-2.8-1.2-7.4-4.3-10.4-5.5-.9-9.9-1.4-13.8-1.7-6-.6-11.2-1.1-15.4-1.4l-6.9,7.9c12.8,6.8,25.6,14.7,40.4,17.6a50.73,50.73,0,0,0,15.6-15,11,11,0,0,0-2.5-1.9" style="fill:#7565ab"/><path d="M122.62,117.09a3.82,3.82,0,0,0-1.5-2.2,49.65,49.65,0,0,1-15.6,15c-14.8-3-27.6-10.8-40.4-17.7l-1.3,1.5c6.4,2.8,11.5,5.3,15,7,6.6,3.3,9.5,5,14.6,6.9a70.23,70.23,0,0,0,12.5,3.4c1.6-.6,17.9-7.9,16.7-13.9" style="fill:#533b95"/><path d="M61.42,101.29a15.61,15.61,0,0,1,6.4.7c1,.4,2,.8,2.9,1.2,1.4.6-4.4,6.6-4.4,6.6l-5.6-2.7-5.5-1.9a3.55,3.55,0,0,1,1.1-1.6,13.15,13.15,0,0,1,5.1-2.3" style="fill:#f6b893"/><path d="M73.62,103.89l-3.5-1.1a11.85,11.85,0,0,0-7.5,7l3.8,1.1a16.78,16.78,0,0,1,7.2-7" style="fill:#b8d3ee"/></g></svg>