<?xml version="1.0" standalone="no"?>
<!DOCTYPE svg PUBLIC "-//W3C//DTD SVG 20010904//EN"
 "http://www.w3.org/TR/2001/REC-SVG-20010904/DTD/svg10.dtd">
<svg version="1.0" xmlns="http://www.w3.org/2000/svg"
 width="192.000000pt" height="192.000000pt" viewBox="0 0 192.000000 192.000000"
 preserveAspectRatio="xMidYMid meet">
<metadata>
Created by potrace 1.11, written by Peter Selinger 2001-2013
</metadata>
<g transform="translate(0.000000,192.000000) scale(0.100000,-0.100000)"
fill="#000000" stroke="none">
<path d="M909 1600 l-166 -5 -2 -102 -2 -103 63 0 63 0 22 -53 c12 -28 45
-106 74 -172 28 -66 52 -124 53 -130 2 -5 13 -32 25 -60 13 -27 38 -86 56
-130 18 -44 41 -98 50 -120 9 -22 24 -56 32 -75 39 -93 23 -85 167 -85 l128 0
12 35 c7 19 79 199 161 400 81 201 149 370 152 377 3 7 24 10 64 7 l59 -4 0
110 0 110 -270 0 -270 0 0 -109 0 -108 67 -2 c37 -1 69 -4 71 -6 2 -2 -6 -34
-19 -72 -13 -37 -24 -72 -25 -78 -1 -5 -18 -57 -37 -115 -34 -103 -55 -175
-63 -215 -11 -56 -14 -68 -19 -73 -3 -3 -5 3 -6 14 -2 59 -63 253 -142 454
-36 92 -37 89 51 92 l77 3 0 105 0 105 -130 5 c-71 3 -205 3 -296 0z"/>
<path d="M282 1218 c-40 -4 -81 -12 -92 -18 -11 -6 -20 -8 -20 -5 0 13 -91
-57 -114 -88 -34 -45 -46 -81 -47 -141 -1 -60 1 -69 25 -119 30 -62 105 -113
217 -147 40 -12 44 -13 146 -30 117 -19 167 -68 138 -137 -36 -84 -203 -80
-264 6 -26 36 -50 101 -44 119 4 10 -19 12 -107 10 l-113 -3 1 -157 c0 -87 1
-162 1 -168 1 -6 38 -10 92 -10 l91 0 -6 62 -7 63 28 -37 c15 -20 53 -49 83
-64 49 -25 66 -28 155 -28 138 1 209 28 288 109 43 45 60 91 59 165 0 83 -20
128 -77 178 -54 48 -172 90 -295 107 -14 2 -38 9 -55 15 -16 6 -31 11 -33 11
-1 -1 -15 5 -31 14 -34 17 -47 58 -32 98 29 75 163 66 224 -15 11 -14 25 -50
31 -80 l13 -53 99 0 99 0 5 135 c3 74 4 151 2 171 l-3 37 -87 -2 -87 -1 2 -60
c2 -50 1 -57 -9 -40 -24 41 -104 90 -166 101 -14 3 -28 6 -31 8 -3 1 -39 -1
-79 -6z"/>
</g>
</svg>
